<?xml version="1.0" standalone="no"?>
<!DOCTYPE svg PUBLIC "-//W3C//DTD SVG 20010904//EN"
 "http://www.w3.org/TR/2001/REC-SVG-20010904/DTD/svg10.dtd">
<svg version="1.0" xmlns="http://www.w3.org/2000/svg"
 width="542.000000pt" height="542.000000pt" viewBox="0 0 542.000000 542.000000"
 preserveAspectRatio="xMidYMid meet">
<metadata>
Created by potrace 1.11, written by Peter Selinger 2001-2013
</metadata>
<g transform="translate(0.000000,542.000000) scale(0.100000,-0.100000)"
fill="#000000" stroke="none">
<path d="M1810 4470 c-11 -7 5 -10 53 -10 54 0 71 -4 87 -20 24 -24 26 -40 5
-40 -22 0 -18 -28 5 -40 12 -6 40 -10 63 -8 42 4 42 4 15 16 -56 24 -17 64 63
64 33 1 85 -23 101 -46 4 -6 10 -7 14 -3 13 13 -59 77 -98 87 -41 12 -91 -3
-117 -33 -12 -15 -16 -14 -41 13 -24 26 -35 30 -82 30 -29 0 -60 -5 -68 -10z"/>
<path d="M1320 4341 l-35 -7 40 -8 c22 -4 48 -10 58 -13 24 -6 38 -44 23 -62
-9 -12 -7 -13 9 -7 48 18 76 18 95 1 19 -17 20 -17 20 -1 0 11 -17 25 -47 38
-26 11 -54 29 -62 39 -19 22 -54 29 -101 20z"/>
<path d="M2730 4190 c0 -6 27 -10 61 -10 37 0 58 4 54 10 -3 6 -31 10 -61 10
-30 0 -54 -4 -54 -10z"/>
<path d="M2685 4178 c-26 -15 -85 -78 -86 -92 -1 -6 -1 -14 0 -18 0 -5 -6 -8
-14 -8 -19 0 -20 -16 -1 -23 9 -4 16 3 20 19 4 13 7 27 9 31 4 13 52 59 58 56
4 -1 16 6 28 16 34 29 25 42 -14 19z"/>
<path d="M2880 4160 c23 -20 30 -24 30 -16 0 9 -32 36 -42 36 -6 0 -1 -9 12
-20z"/>
<path d="M2935 4120 c10 -11 20 -20 23 -20 3 0 -3 9 -13 20 -10 11 -20 20 -23
20 -3 0 3 -9 13 -20z"/>
<path d="M2695 4120 c-3 -6 1 -7 9 -4 18 7 21 14 7 14 -6 0 -13 -4 -16 -10z"/>
<path d="M2860 4126 c0 -2 7 -7 16 -10 8 -3 12 -2 9 4 -6 10 -25 14 -25 6z"/>
<path d="M2659 4093 c-13 -16 -12 -17 4 -4 16 13 21 21 13 21 -2 0 -10 -8 -17
-17z"/>
<path d="M2900 4106 c0 -2 8 -10 18 -17 15 -13 16 -12 3 4 -13 16 -21 21 -21
13z"/>
<path d="M3075 4100 c-11 -4 -30 -17 -42 -29 -28 -27 -37 -26 -57 2 -16 21
-16 21 -6 0 12 -27 -9 -38 -27 -14 -10 14 -11 13 -6 -6 6 -25 -6 -30 -24 -12
-8 8 -11 6 -10 -7 1 -10 -4 -19 -10 -20 -7 -1 -16 -3 -20 -4 -5 -1 -11 -2 -15
-1 -5 0 -8 -5 -8 -11 0 -7 -7 -2 -16 10 -8 12 -21 22 -27 22 -7 0 -3 -6 7 -12
19 -11 19 -11 0 -26 -16 -12 -16 -14 -1 -9 21 8 22 3 2 -17 -13 -13 -11 -15
15 -21 17 -4 30 -11 30 -16 0 -5 7 -9 16 -9 24 0 94 -42 94 -56 0 -6 14 -14
32 -18 17 -3 37 -15 45 -26 8 -11 22 -20 32 -20 9 0 30 -13 45 -29 22 -23 27
-35 23 -67 l-4 -39 -1 36 c-1 20 -9 43 -19 50 -15 13 -15 12 -4 -9 10 -19 10
-30 1 -53 -16 -37 -26 -37 -50 3 -17 29 -65 58 -95 58 -22 0 -46 -31 -40 -51
3 -10 1 -27 -5 -38 -13 -25 -35 -18 -84 27 -33 29 -41 32 -102 32 l-66 0 16
25 c23 36 20 48 -10 41 -35 -9 -64 2 -64 23 0 10 11 34 24 54 24 35 24 36 5
58 -10 12 -19 17 -19 11 0 -7 -7 -12 -15 -12 -8 0 -15 7 -15 15 0 9 -6 12 -15
9 -8 -4 -15 -16 -15 -28 l-1 -21 -17 21 c-31 37 -77 54 -146 54 -84 0 -124
-19 -166 -81 -62 -92 -51 -221 26 -289 19 -16 39 -30 43 -30 15 0 20 -28 11
-59 -5 -17 -4 -61 3 -107 l10 -77 -39 -34 c-21 -19 -50 -45 -64 -58 -42 -40
-119 -89 -235 -148 -60 -32 -115 -62 -122 -67 -7 -6 -14 -10 -16 -10 -3 0 -44
-25 -92 -55 -49 -30 -92 -55 -98 -55 -14 0 -161 -90 -165 -101 -2 -5 -25 -20
-50 -33 -26 -13 -70 -48 -99 -78 -28 -30 -61 -61 -73 -69 -19 -13 -11 -14 82
-14 57 -1 134 -5 171 -9 l69 -9 -6 -31 c-7 -36 -15 -41 -83 -61 -64 -19 -85
-19 -209 0 -189 29 -434 14 -502 -31 -22 -15 -24 -21 -19 -70 3 -29 13 -64 21
-76 21 -29 20 -31 -9 -66 -22 -26 -24 -34 -14 -56 10 -20 28 -31 83 -48 39
-13 73 -26 76 -29 10 -13 216 -51 350 -64 l135 -14 -121 4 c-156 6 -414 54
-414 77 0 4 -6 8 -13 8 -7 0 -59 17 -115 39 -56 21 -102 36 -102 34 0 -12 26
-51 48 -72 54 -50 307 -129 487 -151 94 -12 121 -20 64 -20 -96 0 -325 55
-456 110 -53 22 -98 39 -99 37 -5 -5 45 -107 59 -121 7 -7 21 -33 31 -57 10
-24 40 -91 68 -149 27 -58 50 -114 51 -125 0 -12 -31 -66 -71 -122 -40 -56
-72 -106 -72 -111 0 -6 -7 -12 -15 -16 -30 -11 -13 -28 69 -66 130 -61 375
-120 502 -120 30 0 44 -5 48 -16 4 -9 4 -19 2 -22 -8 -7 -220 18 -226 27 -3 4
-34 13 -70 20 -84 16 -220 61 -300 100 -35 17 -64 30 -65 28 -1 -1 -11 -16
-23 -34 -12 -17 -22 -36 -22 -41 0 -6 26 -23 57 -38 32 -16 64 -34 70 -40 7
-7 43 -22 80 -34 38 -13 73 -25 78 -29 6 -3 15 -6 20 -7 6 -1 24 -5 40 -9 17
-4 37 -8 45 -9 8 -2 22 -6 31 -10 9 -4 20 -6 25 -5 5 1 17 -1 27 -6 9 -4 26
-5 37 -2 11 3 20 1 20 -5 0 -6 22 -8 54 -6 30 1 52 -1 49 -6 -3 -5 95 -6 228
-3 243 5 379 21 629 71 226 45 229 46 223 62 -9 23 24 16 52 -12 34 -34 103
-32 121 5 7 13 16 26 21 30 5 3 19 20 31 37 15 23 35 35 69 43 57 15 316 111
323 120 5 7 131 49 453 151 88 27 189 55 225 62 37 6 70 16 74 22 4 6 11 7 15
2 4 -4 -12 -26 -37 -48 l-45 -40 125 6 c69 4 152 9 186 12 l60 6 16 -39 c9
-21 32 -78 53 -127 20 -49 42 -94 49 -101 7 -7 26 -47 42 -89 16 -42 31 -76
34 -76 3 0 14 15 25 33 22 38 111 162 138 191 22 26 171 236 186 265 15 28 51
47 51 27 0 -8 -6 -21 -13 -28 -18 -20 -167 -227 -167 -234 0 -8 -52 -77 -71
-94 -10 -8 -44 -55 -77 -105 -53 -79 -58 -92 -49 -113 l11 -24 33 38 c18 22
40 53 48 71 9 18 21 36 29 40 14 9 146 187 146 198 0 9 56 83 84 111 12 11 38
46 60 77 21 30 44 58 51 61 7 2 34 32 60 65 25 34 60 76 76 93 16 18 29 36 29
40 0 5 14 27 30 50 17 22 30 50 30 62 0 23 -92 209 -114 231 -7 8 -42 71 -77
140 -35 70 -73 137 -84 149 -15 16 -42 26 -100 36 -44 7 -83 17 -86 23 -4 5
-85 12 -180 16 -170 8 -171 8 -54 9 124 2 296 -14 305 -28 3 -4 27 -11 54 -15
47 -7 48 -7 37 14 -15 26 -88 64 -172 88 -53 15 -102 18 -294 18 -141 0 -263
-5 -315 -13 -138 -22 -434 -83 -440 -91 -3 -4 -45 -18 -95 -30 -180 -46 -625
-187 -635 -201 -5 -6 -66 -30 -78 -30 -3 0 3 9 15 19 28 26 435 161 668 222
28 7 52 16 55 20 3 3 70 21 150 38 219 47 239 51 269 51 15 0 30 3 34 6 3 3
-8 29 -25 57 -17 29 -40 69 -50 90 -10 20 -22 37 -26 37 -13 0 -42 68 -42 99
0 34 26 122 38 130 10 7 62 106 62 118 0 4 -12 -12 -27 -37 -15 -25 -30 -47
-33 -50 -14 -10 -43 -76 -56 -125 -13 -48 -12 -52 19 -120 17 -38 35 -72 40
-73 14 -7 39 -64 30 -71 -4 -4 -66 -24 -138 -45 -248 -73 -330 -99 -333 -107
-2 -5 -10 -9 -18 -9 -7 0 -55 -13 -106 -29 -51 -16 -165 -50 -253 -76 -88 -25
-194 -57 -235 -71 -80 -26 -115 -30 -125 -14 -3 5 -15 43 -26 85 -22 84 -61
179 -87 210 -9 11 -10 14 -2 8 8 -7 18 -13 22 -13 14 0 9 47 -6 59 -11 10 -16
8 -21 -9 -10 -32 -25 -13 -25 31 0 42 -17 69 -44 69 -8 0 -17 -8 -19 -17 -2
-10 -3 -4 -2 12 2 17 -4 38 -13 48 -14 16 -13 17 7 17 12 0 33 -12 46 -27 l24
-28 9 25 c6 16 6 29 0 38 -16 19 12 15 34 -5 17 -15 20 -15 28 -3 8 12 10 10
10 -8 0 -13 9 -35 19 -49 l20 -24 7 36 c5 27 2 41 -11 55 -10 11 -22 17 -26
14 -5 -3 -9 2 -9 10 0 21 19 20 42 -1 17 -15 18 -15 19 3 1 10 4 4 8 -15 7
-41 36 -64 51 -41 18 27 10 50 -22 70 l-33 20 27 0 c15 0 30 -5 34 -12 5 -8
10 -6 15 8 6 16 8 15 8 -8 1 -24 32 -58 53 -58 16 0 7 48 -12 65 -27 25 -25
38 5 33 13 -3 26 0 29 6 2 6 5 -1 5 -15 1 -27 32 -64 44 -52 12 12 7 46 -10
65 -10 11 -12 18 -5 19 26 3 31 4 38 12 15 15 26 6 20 -17 -4 -18 0 -28 19
-40 13 -9 27 -16 30 -16 10 0 5 50 -7 70 -14 22 -12 25 20 34 18 6 22 4 22
-16 1 -22 31 -68 45 -68 7 0 3 52 -6 89 -2 8 4 17 14 19 13 2 17 -3 17 -22 0
-15 11 -33 28 -46 l27 -22 3 30 c2 18 -5 43 -15 58 -17 26 -17 28 -1 21 10 -3
20 -2 23 3 11 18 33 11 28 -9 -5 -19 22 -71 37 -71 15 0 16 54 2 78 -13 20
-12 22 5 22 10 0 24 5 31 12 9 9 12 5 12 -18 0 -18 8 -38 20 -49 18 -17 19
-16 26 9 4 18 1 33 -10 45 -18 20 -22 41 -4 23 17 -17 26 -15 31 6 3 9 5 3 6
-14 1 -19 11 -40 26 -54 l25 -23 0 27 c0 15 -7 38 -16 52 -9 13 -14 28 -10 32
4 4 12 -1 17 -11 14 -24 28 -21 39 8 11 28 57 35 66 10 8 -20 24 -9 24 16 0
24 12 24 35 -1 25 -28 33 -25 41 15 3 19 11 35 16 35 5 0 7 -9 3 -19 -4 -14 2
-25 23 -40 l29 -20 11 23 c8 19 6 27 -11 47 l-22 23 22 -18 c22 -18 22 -18 37
15 8 19 15 27 15 18 1 -9 10 -24 22 -35 17 -16 22 -16 30 -4 5 8 8 26 7 39 -3
24 4 27 137 68 77 23 147 42 157 43 9 0 66 -22 127 -50 61 -27 115 -50 121
-50 5 0 10 -4 10 -8 0 -11 228 -119 373 -177 l39 -15 -21 -26 c-20 -25 -28
-54 -15 -54 3 0 14 5 25 10 11 7 19 7 19 1 0 -10 -98 -46 -105 -39 -2 2 3 30
11 62 8 32 13 60 11 62 -2 2 -18 -29 -35 -69 l-32 -72 -163 -48 c-89 -27 -168
-50 -174 -52 -19 -6 -16 -22 8 -43 25 -24 62 -32 141 -32 l59 0 -15 -29 c-14
-26 -14 -30 0 -35 9 -3 19 -4 24 -1 4 3 28 1 54 -4 45 -8 46 -8 91 37 86 84
153 209 140 261 -4 17 -11 22 -26 18 -19 -5 -20 -4 -4 20 22 33 14 48 -37 66
-108 39 -325 139 -338 156 -3 4 -46 26 -96 50 l-91 43 5 51 c2 29 10 59 17 67
22 25 28 67 15 105 -7 20 -14 34 -16 32 -3 -2 0 -17 6 -32 9 -23 7 -35 -11
-69 -12 -23 -25 -63 -29 -91 l-8 -50 -1 50 c-1 33 6 63 19 88 30 55 25 80 -6
29 -14 -24 -29 -64 -32 -89 -9 -59 -32 -71 -32 -16 0 21 5 55 11 77 13 48 0
85 -40 109 -48 28 -59 22 -90 -48 -26 -57 -33 -65 -57 -65 -29 0 -28 -9 -8
103 8 42 -21 79 -73 95 -21 6 -44 21 -51 32 -11 18 -10 21 13 30 31 12 31 18
0 30 -40 15 -35 62 10 90 19 12 35 26 35 32 0 17 -43 49 -58 43 -7 -3 -24 -5
-37 -5 -33 0 -40 -29 -14 -63 17 -23 20 -37 14 -66 -8 -42 -8 -49 1 -118 5
-44 3 -56 -15 -79 -25 -32 -28 -24 -5 12 14 21 15 33 5 82 -7 35 -8 69 -2 87
7 25 -1 75 -11 75 -3 0 -5 -26 -9 -97 -1 -16 -1 -49 1 -75 3 -39 -1 -52 -25
-80 l-28 -33 8 40 c11 55 6 184 -8 206 -11 18 -17 21 -70 38 -36 12 -57 -9
-57 -58 0 -65 -37 -147 -57 -127 -4 4 -10 41 -14 83 -7 91 -21 107 -100 117
-68 9 -72 12 -53 41 18 28 10 48 -16 40 -17 -6 -50 17 -50 35 0 5 14 25 31 45
18 20 29 41 25 50 -6 16 -48 19 -81 5z m-615 -150 c19 -5 41 -19 48 -30 12
-20 12 -21 -10 -9 -13 7 -25 15 -28 19 -6 9 -32 13 -69 11 -22 -1 -23 -4 -17
-43 4 -24 14 -53 22 -65 26 -41 13 -57 -66 -78 -84 -22 -97 -41 -60 -88 25
-32 25 -41 1 -28 -28 15 -61 91 -61 140 0 52 17 86 65 130 51 46 108 60 175
41z m-40 -44 c0 -3 -4 -8 -10 -11 -5 -3 -10 -1 -10 4 0 6 5 11 10 11 6 0 10
-2 10 -4z m60 -20 c0 -3 -4 -8 -10 -11 -5 -3 -10 -1 -10 4 0 6 5 11 10 11 6 0
10 -2 10 -4z m-180 -175 c0 -6 -4 -13 -10 -16 -5 -3 -10 1 -10 9 0 9 5 16 10
16 6 0 10 -4 10 -9z m-115 -885 c21 -9 42 -20 45 -24 3 -4 21 -19 41 -34 102
-76 145 -137 169 -237 16 -66 9 -202 -13 -253 -9 -21 -14 -38 -12 -38 2 0 25
9 51 20 26 11 52 19 58 17 22 -7 -362 -147 -405 -147 -10 0 -19 -4 -19 -10 0
-5 -10 -10 -21 -10 -16 0 -19 -3 -12 -12 6 -7 21 -44 33 -83 13 -38 27 -73 33
-76 16 -11 48 3 59 26 6 13 26 31 44 41 35 19 41 29 25 39 -6 3 -18 -3 -28
-14 -23 -25 -59 -32 -56 -11 2 13 -5 15 -35 13 l-37 -2 40 12 c22 7 57 21 79
31 21 9 48 16 60 15 24 -3 129 21 136 31 3 4 28 14 55 23 41 14 47 14 31 2
-11 -8 -26 -15 -33 -15 -7 0 -13 -4 -13 -8 0 -10 -98 -42 -128 -42 -20 0 -20
-1 -4 -42 9 -24 19 -45 22 -48 3 -3 11 -15 17 -27 13 -23 8 -27 -48 -37 -8 -1
-25 -8 -38 -15 -13 -7 -36 -11 -52 -9 -18 3 -29 0 -29 -7 0 -10 -63 -34 -103
-39 -5 -1 -19 34 -33 77 -20 63 -28 77 -42 73 -9 -3 -39 -7 -67 -10 -49 -5
-49 -5 13 10 l64 16 -7 34 c-5 28 -3 34 11 34 10 0 15 3 11 6 -3 3 -37 -1 -76
-10 -38 -9 -88 -16 -111 -16 -39 0 -120 32 -120 48 0 4 -22 31 -48 60 -65 71
-87 133 -87 247 0 136 21 190 109 278 100 101 128 120 211 141 44 11 220 -1
260 -18z m2200 -115 c-3 -6 -11 -11 -17 -11 -6 0 -6 6 2 15 14 17 26 13 15 -4z
m-268 -142 c7 -19 11 -50 8 -69 -7 -57 -170 -519 -187 -530 -4 -4 -11 -20 -14
-38 -18 -91 79 21 156 179 33 69 54 98 103 141 102 90 129 97 172 46 26 -30
26 -33 9 -43 -44 -25 -115 -101 -150 -160 -20 -36 -41 -65 -45 -65 -10 0 -40
-80 -34 -90 4 -6 14 -4 26 3 25 15 111 139 132 190 17 39 45 49 66 23 17 -20
15 -83 -3 -135 -23 -63 -20 -67 22 -30 44 38 79 88 129 187 21 39 43 72 50 72
7 0 13 -2 13 -5 0 -13 -92 -179 -125 -227 -38 -55 -101 -108 -128 -108 -25 0
-67 47 -67 76 l0 28 -25 -34 c-37 -50 -93 -100 -111 -100 -16 0 -48 33 -70 72
-9 17 -14 13 -50 -39 -32 -46 -48 -60 -77 -67 -32 -8 -40 -6 -61 13 -14 13
-28 37 -32 54 l-7 31 -22 -44 c-35 -67 -60 -90 -101 -90 -41 0 -84 37 -84 72
0 19 -4 17 -26 -17 -63 -95 -106 -121 -155 -95 -23 13 -49 61 -49 92 -1 21 -2
21 -17 -7 -43 -83 -77 -127 -111 -141 -42 -17 -65 -12 -92 23 -25 33 -26 78 0
174 27 102 27 101 -22 79 -38 -17 -45 -26 -69 -87 -15 -37 -35 -77 -44 -88 -9
-11 -33 -47 -54 -80 -21 -33 -52 -77 -70 -98 -28 -32 -39 -37 -75 -37 -53 0
-83 29 -94 91 l-7 44 -24 -40 c-13 -22 -37 -54 -52 -70 -24 -26 -31 -46 -45
-140 -9 -61 -20 -111 -25 -113 -5 -2 -9 -10 -9 -17 0 -24 -31 -108 -49 -132
-9 -12 -22 -23 -30 -23 -25 0 -60 53 -66 100 -3 25 -8 53 -10 63 -4 19 10 184
21 247 5 32 2 29 -33 -30 -46 -76 -136 -170 -164 -170 -25 0 -79 57 -86 92 -5
23 -7 25 -19 13 -8 -8 -24 -38 -35 -68 -41 -107 -103 -144 -154 -93 -41 42
-42 75 -8 261 6 28 5 29 -13 15 -25 -21 -91 -50 -111 -50 -9 0 -27 9 -39 20
l-21 21 -29 -24 c-16 -13 -64 -41 -106 -62 l-76 -39 -24 -95 c-13 -56 -23
-131 -24 -179 -1 -45 -4 -85 -7 -88 -3 -3 -19 2 -35 10 -47 24 -66 87 -59 189
6 85 36 238 48 247 7 5 47 195 51 245 4 37 23 41 67 14 l34 -20 -6 -93 c-3
-51 -9 -100 -13 -110 -14 -36 34 1 113 87 19 21 34 51 38 74 3 21 13 58 22 82
29 80 -15 156 -99 171 -137 26 -308 -84 -391 -250 -17 -36 -36 -68 -42 -72 -5
-4 -11 -42 -13 -85 -4 -75 -3 -79 28 -115 17 -20 42 -39 56 -42 32 -8 21 -26
-16 -26 -94 0 -180 94 -180 198 0 70 40 144 124 227 91 90 168 141 270 177
155 56 280 48 347 -22 67 -70 74 -178 22 -354 -3 -10 25 12 61 49 l65 67 38
-19 c49 -23 51 -45 19 -165 -35 -130 -42 -191 -23 -206 19 -17 26 -7 73 103
21 50 42 92 46 95 4 3 14 31 22 62 16 64 25 82 74 156 40 61 62 76 103 67 34
-8 59 -48 59 -94 0 -34 -28 -111 -40 -111 -4 0 -11 -11 -14 -24 -3 -13 -26
-46 -51 -74 -47 -52 -56 -79 -29 -89 11 -4 31 10 63 43 62 64 76 88 117 196
52 133 132 515 117 554 -8 21 23 28 58 14 43 -18 62 -60 54 -124 -9 -73 -77
-350 -87 -354 -14 -6 -9 -20 11 -27 26 -8 43 -60 35 -104 l-7 -36 38 45 c36
42 105 174 105 200 0 31 126 170 154 170 9 0 29 -12 43 -26 23 -23 25 -31 20
-85 -6 -68 -38 -129 -104 -200 -43 -47 -50 -63 -34 -88 13 -21 74 39 132 129
27 41 52 80 57 85 4 6 15 28 23 51 l16 40 -32 21 c-25 17 -35 33 -45 73 -23
94 3 183 67 233 46 34 77 35 99 1 16 -24 16 -30 0 -107 -10 -45 -24 -97 -31
-114 -8 -18 -11 -33 -6 -33 4 0 31 25 60 55 29 30 62 55 73 55 18 0 78 -55 78
-71 0 -14 -63 -164 -70 -169 -13 -8 -34 -125 -27 -144 9 -22 37 -8 66 32 38
54 140 291 147 342 6 47 8 50 35 50 38 0 59 -33 59 -91 0 -47 -35 -158 -54
-171 -5 -3 -11 -31 -14 -62 -4 -51 -3 -56 16 -56 12 0 31 14 45 33 23 31 137
258 137 274 1 12 39 52 94 101 54 46 104 56 137 26 16 -14 18 -14 24 8 4 13
11 25 15 28 13 9 100 276 100 308 0 56 55 43 77 -19z m-107 6 c0 -10 -10 -15
-34 -15 -47 0 -296 -43 -431 -75 -226 -53 -487 -130 -493 -146 -2 -5 -9 -9
-15 -9 -6 0 -82 -27 -170 -60 -88 -33 -162 -58 -165 -56 -4 5 82 46 96 46 10
0 197 73 202 79 7 8 225 79 350 113 143 39 347 83 453 99 48 7 87 16 87 20 0
4 21 10 48 12 26 2 53 4 60 5 6 1 12 -5 12 -13z m-2433 -122 c-2 -42 -28 -76
-52 -67 -12 5 -15 -2 -15 -29 0 -20 5 -39 10 -42 6 -3 10 4 10 17 0 17 6 23
24 24 20 2 26 -5 33 -35 9 -34 8 -36 -14 -36 -17 0 -21 4 -17 18 3 9 1 17 -5
17 -6 0 -11 -4 -11 -9 0 -5 -10 -13 -22 -17 -13 -4 -26 -12 -30 -18 -5 -7 -8
-6 -8 4 0 12 -2 12 -9 2 -5 -8 -7 8 -5 37 1 28 -1 51 -5 51 -4 0 -7 9 -7 19 0
11 5 17 10 14 5 -4 7 6 3 24 -6 31 -5 31 51 46 31 8 58 15 59 16 1 1 1 -16 0
-36z m2017 -43 c32 -12 32 -29 1 -105 -19 -48 -28 -60 -47 -60 -15 0 -27 10
-38 30 -8 17 -18 32 -22 33 -11 5 -10 62 0 62 5 0 14 11 20 25 13 27 42 32 86
15z m-2039 -167 c3 -13 13 -23 21 -23 13 0 14 3 5 14 -9 11 -8 15 5 20 9 4 17
5 18 4 24 -63 42 -128 37 -136 -4 -6 -22 -13 -41 -15 -19 -2 -43 -7 -53 -11
-18 -9 -47 8 -47 28 0 6 4 5 9 -3 7 -11 10 -11 15 0 5 11 7 11 12 2 11 -24 25
-13 20 15 -2 15 -5 28 -5 29 -1 1 -15 -2 -32 -7 -26 -8 -30 -7 -25 7 4 9 -1
22 -11 30 -17 13 -16 14 5 8 13 -4 22 -2 22 5 0 7 -9 14 -19 17 -11 3 -22 11
-25 18 -3 9 0 12 8 9 8 -3 17 -1 20 4 12 19 55 8 61 -15z m105 -283 c-30 -5
-89 -8 -130 -7 l-75 0 60 7 c33 4 92 7 130 7 l70 0 -55 -7z m2951 -145 c136
-21 184 -34 171 -47 -6 -6 -35 -5 -88 6 -278 55 -626 45 -1001 -29 -161 -32
-326 -74 -333 -84 -3 -4 -34 -15 -70 -25 -149 -40 -558 -187 -570 -205 -7 -11
-80 -34 -87 -27 -11 11 29 38 99 65 204 81 263 103 383 141 72 24 132 46 133
51 2 5 11 9 19 9 8 0 52 11 97 24 205 61 560 124 786 140 101 7 356 -3 461
-19z m-2223 -487 c-5 -15 -211 -67 -363 -93 -60 -10 -112 -22 -115 -25 -16
-21 -390 -40 -390 -20 0 6 25 10 55 10 30 0 55 5 55 10 0 6 24 10 53 10 113 0
449 56 597 99 78 23 113 26 108 9z"/>
<path d="M2310 3907 c-36 -18 -71 -76 -68 -112 4 -36 31 -44 91 -24 52 17 64
48 42 106 -18 46 -26 50 -65 30z m20 -27 c0 -5 -4 -10 -10 -10 -5 0 -10 5 -10
10 0 6 5 10 10 10 6 0 10 -4 10 -10z m-40 -40 c0 -5 -4 -10 -10 -10 -5 0 -10
5 -10 10 0 6 5 10 10 10 6 0 10 -4 10 -10z m-15 -60 c3 -5 2 -10 -4 -10 -5 0
-13 5 -16 10 -3 6 -2 10 4 10 5 0 13 -4 16 -10z"/>
<path d="M1965 2800 c-5 -5 -20 -18 -32 -29 -15 -14 -37 -21 -64 -21 -52 0
-99 -42 -99 -90 0 -20 -6 -33 -17 -37 -38 -13 -53 -36 -53 -79 0 -34 6 -51 28
-75 29 -32 50 -37 113 -24 35 7 37 6 44 -24 4 -17 10 -31 15 -31 5 0 11 -13
15 -30 5 -24 9 -27 19 -17 19 19 241 91 259 84 9 -3 25 -23 36 -44 18 -34 20
-36 21 -13 0 14 4 32 10 40 8 12 10 12 16 -3 3 -9 1 -24 -6 -32 -10 -12 -9
-16 3 -20 24 -10 50 -80 44 -120 -7 -45 10 -36 18 9 5 24 1 45 -16 77 -12 24
-22 56 -20 70 3 33 -21 54 -46 41 -13 -8 -24 -5 -43 8 -31 22 -58 96 -41 113
6 6 11 18 11 26 0 8 11 26 24 40 37 39 41 71 14 111 -19 28 -31 36 -60 38 -21
2 -46 -2 -57 -8 -16 -8 -25 -7 -40 7 -40 36 -51 43 -68 43 -10 -1 -22 -5 -28
-10z m80 -45 c14 -13 25 -30 25 -36 0 -7 9 -4 23 8 39 37 64 38 97 4 36 -36
37 -48 5 -92 -13 -19 -30 -44 -36 -56 -16 -31 -39 -29 -39 2 0 22 -2 24 -26
15 -42 -16 -45 -12 -24 30 37 72 27 81 -53 54 -32 -11 -44 -20 -40 -30 3 -9
13 -12 31 -7 22 5 24 4 17 -13 -24 -60 -28 -73 -22 -87 5 -15 11 -15 57 -1 60
18 71 11 95 -55 13 -38 13 -40 -8 -46 -12 -4 -64 -22 -115 -41 -51 -19 -94
-34 -96 -34 -3 0 -10 17 -17 37 -20 61 -44 73 -102 51 -39 -15 -74 3 -92 47
-19 45 -6 83 35 98 26 10 30 16 30 49 0 53 27 78 85 78 34 0 50 6 69 25 32 32
70 32 101 0z"/>
<path d="M1815 2671 c-9 -15 41 -176 56 -178 8 -2 21 2 29 7 13 9 13 11 0 20
-13 9 -13 11 0 20 10 6 21 4 35 -9 19 -16 55 -18 55 -3 0 4 -13 23 -29 41 -24
29 -27 39 -18 58 6 13 8 25 5 28 -10 10 -56 -17 -65 -38 -8 -17 -11 -15 -21
22 -12 38 -33 53 -47 32z"/>
<path d="M2105 2380 c-4 -6 13 -10 44 -10 28 0 51 5 51 10 0 6 -20 10 -44 10
-25 0 -48 -4 -51 -10z"/>
<path d="M2010 2353 c-17 -5 -66 -63 -53 -63 19 0 73 41 73 55 0 8 -1 14 -2
14 -2 -1 -10 -3 -18 -6z"/>
<path d="M2140 2300 c0 -5 5 -10 10 -10 6 0 10 5 10 10 0 6 -4 10 -10 10 -5 0
-10 -4 -10 -10z"/>
<path d="M1844 2278 c-11 -17 6 -56 26 -61 14 -3 20 -13 20 -31 0 -14 4 -26 8
-26 4 0 14 -16 21 -35 7 -19 17 -35 23 -35 6 0 7 7 3 18 -21 48 -34 89 -35
105 0 10 -8 17 -19 17 -21 0 -37 15 -24 23 5 2 2 2 -4 1 -7 -2 -13 3 -13 11 0
11 5 12 26 5 33 -13 34 -13 34 3 0 15 -57 19 -66 5z"/>
<path d="M2025 2270 c-3 -5 -1 -10 4 -10 6 0 11 5 11 10 0 6 -2 10 -4 10 -3 0
-8 -4 -11 -10z"/>
<path d="M2204 2199 c-3 -6 -20 -19 -38 -30 -17 -10 -25 -19 -19 -19 13 0 83
59 71 60 -4 0 -10 -5 -14 -11z"/>
<path d="M2058 2143 c12 -2 32 -2 45 0 12 2 2 4 -23 4 -25 0 -35 -2 -22 -4z"/>
<path d="M2254 1976 c-15 -12 -16 -17 -7 -27 10 -10 15 -9 28 1 16 13 21 40 7
40 -5 0 -17 -6 -28 -14z"/>
<path d="M3080 2178 c-23 -51 -26 -111 -6 -127 12 -10 17 0 30 58 9 38 16 79
16 90 0 34 -20 24 -40 -21z"/>
<path d="M3854 2171 c-38 -43 -124 -203 -124 -231 0 -6 -4 -10 -10 -10 -5 0
-10 -18 -10 -40 0 -68 20 -54 90 63 44 75 100 207 100 238 0 17 -20 9 -46 -20z"/>
<path d="M2913 1949 c-16 -20 -74 -191 -62 -183 19 12 59 83 70 128 13 52 9
76 -8 55z"/>
<path d="M2308 1760 c-17 -25 -61 -170 -54 -177 15 -15 81 150 74 184 -3 16
-6 15 -20 -7z"/>
<path d="M2556 1718 c-10 -47 -5 -72 17 -76 14 -3 17 4 17 37 0 23 -4 41 -9
41 -5 0 -11 8 -14 18 -2 10 -7 3 -11 -20z"/>
<path d="M1817 1707 c-12 -19 -12 -26 -2 -40 11 -15 13 -13 18 20 8 46 4 50
-16 20z"/>
<path d="M2522 1496 c-24 -189 -9 -260 23 -110 25 119 30 185 14 195 -8 5 -17
9 -20 9 -3 0 -11 -42 -17 -94z"/>
<path d="M1487 2453 c-10 -9 -8 -51 2 -57 10 -7 21 17 21 45 0 19 -11 25 -23
12z"/>
<path d="M1520 2439 c0 -8 4 -20 9 -27 7 -11 9 -11 14 1 3 9 -1 21 -9 27 -11
10 -14 10 -14 -1z"/>
<path d="M1475 2370 c3 -5 8 -10 11 -10 2 0 4 5 4 10 0 6 -5 10 -11 10 -5 0
-7 -4 -4 -10z"/>
<path d="M1474 2334 c3 -9 6 -18 6 -20 0 -2 4 -4 9 -4 5 0 7 9 4 20 -3 11 -10
20 -15 20 -6 0 -7 -7 -4 -16z"/>
<path d="M1506 2241 c-6 -10 22 -37 29 -29 8 7 -5 38 -15 38 -5 0 -11 -4 -14
-9z"/>
<path d="M1550 2202 c0 -12 58 -72 69 -72 6 0 11 3 11 8 -1 13 -27 42 -39 42
-6 0 -14 7 -17 15 -6 16 -24 21 -24 7z"/>
<path d="M1515 2190 c3 -5 8 -10 11 -10 2 0 4 5 4 10 0 6 -5 10 -11 10 -5 0
-7 -4 -4 -10z"/>
<path d="M3185 4080 c-10 -16 32 -20 65 -6 l33 13 -46 1 c-26 1 -49 -3 -52 -8z"/>
<path d="M2758 4073 c7 -3 16 -2 19 1 4 3 -2 6 -13 5 -11 0 -14 -3 -6 -6z"/>
<path d="M2798 4073 c6 -2 18 -2 25 0 6 3 1 5 -13 5 -14 0 -19 -2 -12 -5z"/>
<path d="M2714 4048 l-19 -23 23 19 c12 11 22 21 22 23 0 8 -8 2 -26 -19z"/>
<path d="M2855 4050 c10 -11 20 -20 23 -20 3 0 -3 9 -13 20 -10 11 -20 20 -23
20 -3 0 3 -9 13 -20z"/>
<path d="M2623 3990 c0 -25 2 -35 4 -22 2 12 2 32 0 45 -2 12 -4 2 -4 -23z"/>
<path d="M2752 4018 c-17 -17 -15 -43 5 -59 15 -13 15 -12 2 9 -11 18 -11 26
-1 42 14 23 12 26 -6 8z"/>
<path d="M3455 4007 c10 -15 20 -25 23 -22 3 3 -5 16 -17 28 l-23 22 17 -28z"/>
<path d="M2560 3990 c0 -20 5 -30 15 -30 10 0 15 10 15 30 0 20 -5 30 -15 30
-10 0 -15 -10 -15 -30z"/>
<path d="M2692 3990 c0 -19 2 -27 5 -17 2 9 2 25 0 35 -3 9 -5 1 -5 -18z"/>
<path d="M3520 3941 c0 -12 5 -21 10 -21 6 0 10 6 10 14 0 8 -4 18 -10 21 -5
3 -10 -3 -10 -14z"/>
<path d="M2706 3937 c4 -11 0 -23 -12 -32 -18 -14 -18 -14 7 -15 15 0 40 7 55
15 l29 15 -29 0 c-16 0 -35 8 -42 18 -13 16 -14 16 -8 -1z"/>
<path d="M1342 3914 c-22 -25 -23 -26 -42 -9 -23 21 -82 15 -111 -11 -26 -23
-18 -28 17 -9 35 18 49 19 76 4 21 -11 21 -12 3 -25 -17 -13 -16 -14 17 -14
37 0 57 13 39 25 -6 3 -8 12 -4 20 3 10 20 15 50 15 39 0 43 2 29 15 -22 22
-48 18 -74 -11z"/>
<path d="M3723 3882 c-18 -11 38 -31 62 -22 16 6 14 8 -15 18 -18 7 -33 12
-34 12 -1 0 -6 -4 -13 -8z"/>
<path d="M3930 3776 c0 -2 7 -7 16 -10 8 -3 12 -2 9 4 -6 10 -25 14 -25 6z"/>
<path d="M3960 3740 c0 -8 5 -22 10 -30 9 -13 10 -13 10 0 0 8 -5 22 -10 30
-9 13 -10 13 -10 0z"/>
<path d="M4000 3646 c0 -9 5 -16 10 -16 6 0 10 4 10 9 0 6 -4 13 -10 16 -5 3
-10 -1 -10 -9z"/>
<path d="M3566 3184 c-5 -18 -2 -32 11 -46 17 -19 17 -19 25 3 6 15 3 30 -7
45 -19 30 -21 30 -29 -2z"/>
<path d="M4115 3155 c-29 -28 -31 -45 -10 -84 40 -79 167 -21 136 62 -20 51
-86 63 -126 22z"/>
<path d="M3380 3128 c1 -30 19 -68 32 -68 16 0 13 42 -4 69 -11 17 -22 31 -24
31 -2 0 -4 -15 -4 -32z"/>
<path d="M3307 3136 c-4 -10 -7 -26 -7 -35 0 -21 33 -54 43 -44 13 12 7 51
-11 73 -17 21 -19 21 -25 6z"/>
<path d="M3460 3122 c0 -23 8 -36 30 -52 l30 -21 0 20 c0 12 0 24 1 29 0 4
-13 18 -30 31 l-31 24 0 -31z"/>
<path d="M3545 3121 c-9 -28 22 -81 36 -60 13 21 11 34 -10 60 l-18 23 -8 -23z"/>
<path d="M3621 3117 c-8 -20 -8 -34 -1 -48 13 -24 17 -24 30 1 8 15 7 27 -4
47 l-14 28 -11 -28z"/>
<path d="M3445 3047 c-5 -16 -1 -34 9 -48 l15 -22 6 26 c5 16 1 34 -9 48 l-15
22 -6 -26z"/>
<path d="M3280 3031 c0 -16 7 -34 15 -41 12 -10 15 -7 21 14 4 16 1 32 -6 41
-19 23 -30 18 -30 -14z"/>
<path d="M3375 3040 c-7 -21 9 -50 26 -50 14 0 10 47 -5 59 -11 10 -16 8 -21
-9z"/>
<path d="M3190 3021 c0 -34 24 -60 34 -36 7 19 -10 65 -24 65 -5 0 -10 -13
-10 -29z"/>
<path d="M3114 3006 c-6 -27 11 -60 27 -50 13 8 10 36 -6 58 -13 18 -14 17
-21 -8z"/>
<path d="M3045 2980 c-7 -22 11 -53 26 -44 14 8 11 40 -5 53 -11 10 -16 8 -21
-9z"/>
<path d="M2947 2959 c-5 -17 0 -30 13 -44 20 -19 20 -19 20 6 0 14 -6 33 -13
44 -13 17 -14 17 -20 -6z"/>
<path d="M2875 2930 c-7 -22 11 -53 26 -44 14 8 11 40 -5 53 -11 10 -16 8 -21
-9z"/>
<path d="M3980 2940 c0 -15 63 -189 82 -223 5 -10 12 -16 15 -14 2 3 -2 19
-11 35 -8 16 -22 47 -30 68 -43 119 -55 148 -56 134z"/>
<path d="M2777 2901 c-3 -12 3 -27 14 -37 21 -19 24 -18 33 13 5 16 2 25 -13
32 -26 15 -28 14 -34 -8z"/>
<path d="M2714 2886 c-8 -20 7 -52 22 -49 15 3 15 27 0 48 -14 19 -15 19 -22
1z"/>
<path d="M2626 2852 c-7 -20 11 -62 26 -62 13 0 9 45 -6 65 -13 18 -14 18 -20
-3z"/>
<path d="M2420 2824 c0 -28 16 -64 29 -64 14 0 22 73 8 82 -23 15 -37 8 -37
-18z"/>
<path d="M2550 2791 c0 -25 24 -61 34 -50 14 16 15 49 1 63 -24 24 -35 20 -35
-13z"/>
<path d="M2484 2776 c-4 -9 -1 -29 6 -44 12 -27 13 -27 22 -5 8 16 6 27 -5 44
-15 20 -17 21 -23 5z"/>
<path d="M3912 1458 c-18 -18 -15 -73 6 -90 68 -60 129 -31 97 46 -21 51 -74
73 -103 44z m79 -44 c19 -31 20 -37 7 -50 -32 -32 -92 25 -74 71 10 27 43 17
67 -21z"/>
<path d="M3817 1370 c-8 -11 -17 -17 -20 -13 -18 17 -4 -17 19 -48 14 -19 29
-41 34 -49 5 -8 12 -12 16 -8 4 4 -6 26 -21 48 -26 37 -27 42 -13 57 15 14 18
13 37 -8 11 -13 27 -33 35 -44 8 -11 18 -17 22 -13 9 10 -64 98 -81 98 -8 0
-20 -9 -28 -20z"/>
<path d="M3710 1361 c0 -5 7 -11 15 -15 9 -3 15 0 15 9 0 8 -7 15 -15 15 -8 0
-15 -4 -15 -9z"/>
<path d="M3750 1323 c0 -13 62 -103 72 -103 5 0 0 15 -12 33 -11 17 -26 42
-32 55 -10 20 -28 30 -28 15z"/>
<path d="M3693 1295 c-18 -20 -16 -28 11 -58 14 -15 27 -36 31 -47 6 -17 25
-29 25 -15 0 17 -31 75 -39 75 -6 0 -11 9 -11 20 0 11 7 20 15 20 8 0 15 5 15
10 0 15 -33 11 -47 -5z"/>
<path d="M3603 1245 c-23 -16 -32 -55 -13 -55 6 0 10 9 10 19 0 20 25 35 41
25 16 -9 10 -32 -12 -47 -25 -18 -23 -55 4 -71 15 -9 22 -7 35 10 10 11 23 19
30 16 17 -5 16 -2 -17 59 -32 60 -45 67 -78 44z m65 -82 c-4 -32 -38 -46 -38
-16 0 20 18 43 33 43 4 0 7 -12 5 -27z"/>
<path d="M3500 1180 c-11 -10 -29 -16 -40 -13 -12 3 -22 -1 -26 -11 -3 -9 -10
-13 -15 -10 -14 8 -11 -9 12 -65 12 -28 26 -51 31 -51 6 0 8 6 5 13 -29 78
-31 87 -19 99 14 14 39 -9 59 -54 7 -16 17 -28 23 -28 6 0 4 15 -6 38 -22 50
-22 66 -1 70 13 3 23 -9 38 -42 11 -25 24 -46 29 -46 14 0 13 5 -15 59 -28 57
-46 66 -75 41z"/>
<path d="M3170 1110 c-7 -19 -6 -70 1 -70 4 0 14 -19 20 -42 16 -54 26 -68 46
-61 14 5 14 8 1 17 -19 14 -42 82 -34 101 3 8 1 15 -5 15 -5 0 -14 10 -19 23
-5 12 -10 20 -10 17z"/>
<path d="M3258 1089 c-12 -6 -18 -22 -18 -43 0 -64 74 -114 100 -67 13 25 13
41 0 41 -5 0 -10 -7 -10 -15 0 -19 -34 -20 -49 -1 -10 12 -5 16 24 26 39 13
44 29 17 53 -21 19 -39 21 -64 6z m59 -26 c4 -11 -54 -29 -64 -20 -3 3 1 13 8
21 16 18 50 17 56 -1z"/>
<path d="M2162 1028 c-22 -103 -25 -128 -14 -128 6 0 14 16 18 36 10 56 47 32
78 -51 2 -5 7 -7 11 -3 4 4 2 21 -4 39 -9 26 -8 36 9 59 38 53 23 84 -46 96
l-40 6 -12 -54z m93 10 c18 -16 -10 -43 -41 -40 -37 4 -38 6 -30 37 6 22 10
24 34 19 15 -4 31 -11 37 -16z"/>
<path d="M3079 1038 l-25 -11 14 -56 c8 -31 18 -60 23 -65 12 -13 11 7 -1 59
-7 30 -6 43 4 54 20 19 35 6 42 -38 7 -41 20 -69 28 -60 9 9 -21 111 -35 120
-16 10 -16 10 -50 -3z"/>
<path d="M2543 990 c-6 -17 -7 -32 -2 -35 4 -3 6 -19 2 -35 -8 -44 4 -80 27
-80 23 0 27 15 5 24 -10 3 -15 19 -15 46 0 29 4 40 15 40 8 0 15 5 15 10 0 6
-4 10 -10 10 -5 0 -10 11 -10 25 0 34 -13 32 -27 -5z"/>
<path d="M2958 1008 c-18 -15 -31 -48 -19 -48 5 0 15 10 23 22 8 12 19 18 26
14 20 -12 13 -36 -13 -48 -30 -13 -41 -43 -25 -63 15 -18 46 -20 56 -4 3 6 15
8 26 6 18 -5 19 -2 13 31 -4 20 -11 39 -16 40 -5 2 -9 11 -9 21 0 35 -34 51
-62 29z m52 -88 c0 -25 -27 -37 -43 -21 -9 10 -8 16 7 27 27 19 36 18 36 -6z"/>
<path d="M2303 963 c-17 -41 -10 -79 18 -96 22 -14 69 0 69 20 0 13 -3 14 -12
5 -17 -17 -55 -15 -62 4 -9 24 -9 24 39 24 39 0 45 3 45 21 0 37 -19 59 -51
59 -25 0 -32 -6 -46 -37z m63 13 c22 -23 17 -36 -16 -36 -34 0 -35 2 -18 30
15 24 16 24 34 6z"/>
<path d="M2865 935 c4 -33 12 -64 17 -70 7 -7 9 5 5 37 -3 37 0 53 14 69 25
29 24 30 -12 27 l-30 -2 6 -61z"/>
<path d="M2436 964 c-8 -28 5 -50 35 -59 10 -4 19 -13 19 -21 0 -16 -36 -19
-45 -4 -12 20 -26 10 -15 -10 13 -25 65 -28 74 -4 11 30 6 44 -24 59 -34 18
-39 35 -10 35 11 0 20 -4 20 -10 0 -5 5 -10 10 -10 15 0 12 19 -4 36 -24 23
-53 17 -60 -12z"/>
<path d="M2800 931 c0 -44 -4 -60 -15 -65 -18 -7 -35 29 -35 75 0 16 -5 29
-11 29 -10 0 -4 -93 8 -112 2 -4 24 -7 49 -6 40 2 45 5 40 23 -3 11 -6 41 -6
68 0 35 -4 47 -15 47 -12 0 -15 -13 -15 -59z"/>
<path d="M2620 955 c-18 -22 -5 -31 16 -11 18 19 38 17 42 -5 2 -9 -10 -18
-30 -24 -28 -8 -33 -15 -33 -40 0 -29 2 -30 43 -30 l43 -1 -3 61 c-3 59 -3 60
-34 63 -19 2 -36 -3 -44 -13z m58 -72 c-4 -22 -48 -31 -48 -10 0 19 10 27 32
27 13 0 18 -6 16 -17z"/>
</g>
</svg>
